# xmcd
#
# Track frame offsets:
#	150
#	16065
#	31727
#	54399
#	57875
#	69891
#	82652
#	100536
#	118667
#	133883
#	137943
#	155929
#
# Disc length: 2670 seconds
#
# Revision: 0
# Processed by: cddbd v1.5.2PL0 Copyright (c) Steve Scherf et al.
# Submitted via: EasyCDDAExtractor 10.0.1.1
#
DISCID=940a6c0c
DTITLE=Oxmo Puccino and the jazzbastard - Lipopette Bar
DYEAR=2006
DGENRE=Rap
TTITLE0=Perdre et gagner
TTITLE1=Au Lipopette Bar
TTITLE2=Quoi qu'il en soit
TTITLE3=Depuis...
TTITLE4=Où est Billie ?
TTITLE5=Conte de fée
TTITLE6=Tito
TTITLE7=La roulette russe
TTITLE8=Black Popaye
TTITLE9=Ceux qui disent...
TTITLE10=La femme de sa nuit
TTITLE11=Nirvana
EXTD=
EXTT0=
EXTT1=
EXTT2=
EXTT3=
EXTT4=
EXTT5=
EXTT6=
EXTT7=
EXTT8=
EXTT9=
EXTT10=
EXTT11=
PLAYORDER=
